<svg xmlns="http://www.w3.org/2000/svg" xmlns:xlink="http://www.w3.org/1999/xlink" width="2000" zoomAndPan="magnify" viewBox="0 0 1500 1499.999933" height="2000" preserveAspectRatio="xMidYMid meet" version="1.0"><defs><clipPath id="d21431d741"><path d="M 6 0.121094 L 575 0.121094 L 575 1236.839844 L 6 1236.839844 Z M 6 0.121094 " clip-rule="nonzero"/></clipPath><clipPath id="3682c6bbaf"><path d="M 405 0.121094 L 888 0.121094 L 888 1179 L 405 1179 Z M 405 0.121094 " clip-rule="nonzero"/></clipPath><clipPath id="ce18db5c90"><path d="M 7.472656 453.621094 L 67.8125 453.621094 L 67.8125 572.261719 L 7.472656 572.261719 Z M 7.472656 453.621094 " clip-rule="nonzero"/></clipPath><clipPath id="e30d614bab"><path d="M 48.371094 468.832031 C 49.121094 560.894531 48.371094 563.707031 45.933594 566.519531 C 43.308594 569.332031 38.621094 571.394531 35.246094 571.957031 C 32.433594 572.519531 29.808594 571.957031 27.371094 571.019531 C 24.746094 570.082031 22.308594 568.582031 20.621094 566.519531 C 18.558594 563.707031 16.121094 559.207031 16.308594 555.269531 C 16.683594 550.957031 21.371094 547.207031 23.433594 541.582031 C 26.433594 533.519531 28.871094 520.769531 30.183594 510.457031 C 31.683594 500.144531 29.246094 480.644531 32.058594 479.707031 C 34.308594 479.144531 39.933594 494.519531 42.933594 494.144531 C 45.558594 493.769531 48.183594 478.394531 48.933594 478.582031 C 49.871094 478.769531 43.496094 504.082031 43.496094 513.457031 C 43.496094 519.832031 44.808594 524.144531 45.933594 529.769531 C 47.433594 535.582031 51.371094 543.269531 51.746094 547.582031 C 52.121094 550.019531 52.121094 551.332031 51.371094 553.394531 C 50.433594 556.394531 47.996094 560.894531 45.183594 563.144531 C 42.371094 565.582031 37.496094 566.894531 34.496094 567.269531 C 32.246094 567.457031 30.746094 567.269531 28.683594 566.519531 C 25.871094 565.394531 21.371094 562.769531 19.308594 559.957031 C 17.246094 556.957031 15.746094 552.644531 15.933594 548.894531 C 15.933594 545.332031 17.996094 540.644531 19.683594 538.019531 C 20.996094 536.332031 22.121094 535.207031 23.996094 534.082031 C 26.808594 532.769531 32.058594 531.269531 35.246094 531.269531 C 37.308594 531.269531 39.183594 531.832031 40.871094 532.582031 C 42.558594 533.332031 44.246094 534.082031 45.746094 535.769531 C 47.996094 538.019531 50.621094 542.707031 51.558594 545.707031 C 52.121094 547.769531 52.121094 549.457031 51.746094 551.519531 C 51.183594 554.519531 49.308594 559.394531 46.683594 561.832031 C 44.058594 564.457031 40.121094 566.519531 36.371094 567.082031 C 32.808594 567.644531 28.308594 566.707031 25.121094 565.019531 C 21.933594 563.332031 19.308594 559.769531 17.433594 556.582031 C 15.183594 553.019531 14.433594 548.894531 12.933594 544.769531 C 11.246094 539.894531 9.183594 534.082031 8.433594 528.832031 C 7.496094 523.769531 7.683594 518.707031 7.683594 513.457031 C 7.683594 508.019531 7.496094 503.144531 8.246094 496.957031 C 9.558594 488.144531 10.308594 473.144531 15.933594 466.394531 C 20.996094 460.582031 31.308594 457.019531 38.246094 456.644531 C 43.871094 456.082031 49.683594 458.144531 54.371094 460.957031 C 59.058594 463.769531 64.308594 468.832031 66.371094 474.269531 C 68.621094 479.707031 67.496094 486.269531 67.121094 493.582031 C 66.558594 502.582031 65.621094 513.644531 62.808594 524.519531 C 59.246094 537.644531 51.183594 559.769531 45.933594 566.519531 C 43.683594 569.332031 41.621094 570.082031 39.183594 571.019531 C 36.746094 571.957031 33.933594 572.519531 31.308594 571.957031 C 27.933594 571.394531 23.058594 568.957031 20.621094 566.519531 C 18.558594 564.457031 17.808594 563.144531 16.871094 559.394531 C 13.683594 546.269531 16.121094 481.957031 17.808594 468.832031 C 18.371094 465.082031 18.558594 463.957031 19.683594 461.707031 C 20.808594 459.644531 22.308594 457.582031 24.371094 456.269531 C 27.183594 454.769531 31.683594 453.269531 34.871094 453.832031 C 38.246094 454.207031 42.371094 456.269531 44.433594 458.707031 C 46.683594 461.332031 48.371094 468.832031 48.371094 468.832031 " clip-rule="nonzero"/></clipPath><clipPath id="001b4a5376"><path d="M 0.472656 0.621094 L 60.8125 0.621094 L 60.8125 119.261719 L 0.472656 119.261719 Z M 0.472656 0.621094 " clip-rule="nonzero"/></clipPath><clipPath id="cd21b42851"><path d="M 41.371094 15.832031 C 42.121094 107.894531 41.371094 110.707031 38.933594 113.519531 C 36.308594 116.332031 31.621094 118.394531 28.246094 118.957031 C 25.433594 119.519531 22.808594 118.957031 20.371094 118.019531 C 17.746094 117.082031 15.308594 115.582031 13.621094 113.519531 C 11.558594 110.707031 9.121094 106.207031 9.308594 102.269531 C 9.683594 97.957031 14.371094 94.207031 16.433594 88.582031 C 19.433594 80.519531 21.871094 67.769531 23.183594 57.457031 C 24.683594 47.144531 22.246094 27.644531 25.058594 26.707031 C 27.308594 26.144531 32.933594 41.519531 35.933594 41.144531 C 38.558594 40.769531 41.183594 25.394531 41.933594 25.582031 C 42.871094 25.769531 36.496094 51.082031 36.496094 60.457031 C 36.496094 66.832031 37.808594 71.144531 38.933594 76.769531 C 40.433594 82.582031 44.371094 90.269531 44.746094 94.582031 C 45.121094 97.019531 45.121094 98.332031 44.371094 100.394531 C 43.433594 103.394531 40.996094 107.894531 38.183594 110.144531 C 35.371094 112.582031 30.496094 113.894531 27.496094 114.269531 C 25.246094 114.457031 23.746094 114.269531 21.683594 113.519531 C 18.871094 112.394531 14.371094 109.769531 12.308594 106.957031 C 10.246094 103.957031 8.746094 99.644531 8.933594 95.894531 C 8.933594 92.332031 10.996094 87.644531 12.683594 85.019531 C 13.996094 83.332031 15.121094 82.207031 16.996094 81.082031 C 19.808594 79.769531 25.058594 78.269531 28.246094 78.269531 C 30.308594 78.269531 32.183594 78.832031 33.871094 79.582031 C 35.558594 80.332031 37.246094 81.082031 38.746094 82.769531 C 40.996094 85.019531 43.621094 89.707031 44.558594 92.707031 C 45.121094 94.769531 45.121094 96.457031 44.746094 98.519531 C 44.183594 101.519531 42.308594 106.394531 39.683594 108.832031 C 37.058594 111.457031 33.121094 113.519531 29.371094 114.082031 C 25.808594 114.644531 21.308594 113.707031 18.121094 112.019531 C 14.933594 110.332031 12.308594 106.769531 10.433594 103.582031 C 8.183594 100.019531 7.433594 95.894531 5.933594 91.769531 C 4.246094 86.894531 2.183594 81.082031 1.433594 75.832031 C 0.496094 70.769531 0.683594 65.707031 0.683594 60.457031 C 0.683594 55.019531 0.496094 50.144531 1.246094 43.957031 C 2.558594 35.144531 3.308594 20.144531 8.933594 13.394531 C 13.996094 7.582031 24.308594 4.019531 31.246094 3.644531 C 36.871094 3.082031 42.683594 5.144531 47.371094 7.957031 C 52.058594 10.769531 57.308594 15.832031 59.371094 21.269531 C 61.621094 26.707031 60.496094 33.269531 60.121094 40.582031 C 59.558594 49.582031 58.621094 60.644531 55.808594 71.519531 C 52.246094 84.644531 44.183594 106.769531 38.933594 113.519531 C 36.683594 116.332031 34.621094 117.082031 32.183594 118.019531 C 29.746094 118.957031 26.933594 119.519531 24.308594 118.957031 C 20.933594 118.394531 16.058594 115.957031 13.621094 113.519531 C 11.558594 111.457031 10.808594 110.144531 9.871094 106.394531 C 6.683594 93.269531 9.121094 28.957031 10.808594 15.832031 C 11.371094 12.082031 11.558594 10.957031 12.683594 8.707031 C 13.808594 6.644531 15.308594 4.582031 17.371094 3.269531 C 20.183594 1.769531 24.683594 0.269531 27.871094 0.832031 C 31.246094 1.207031 35.371094 3.269531 37.433594 5.707031 C 39.683594 8.332031 41.371094 15.832031 41.371094 15.832031 " clip-rule="nonzero"/></clipPath><clipPath id="d44fb33664"><rect x="0" width="61" y="0" height="120"/></clipPath><clipPath id="5fc9b9f777"><rect x="0" width="890" y="0" height="1237"/></clipPath></defs><g transform="matrix(1, 0, 0, 1, 309, 111)"><g clip-path="url(#5fc9b9f777)"><g clip-path="url(#d21431d741)"><path fill="#f84022" d="M 374.582031 1037.777344 C 360.640625 992.371094 341.289062 950.171875 314.777344 911.363281 C 309.667969 903.886719 304.105469 896.78125 297.46875 890.59375 C 294.953125 888.25 292.027344 885.648438 288.402344 887.582031 C 284.597656 889.605469 284.867188 893.589844 285.273438 897.328125 C 287.394531 916.945312 294.503906 935.179688 301.078125 953.53125 C 316.785156 997.378906 333.855469 1040.753906 347.144531 1085.449219 C 351.804688 1101.121094 355.789062 1116.949219 357.589844 1133.238281 C 358.566406 1142.046875 357.90625 1150.792969 355.40625 1159.328125 C 349.417969 1179.773438 330.546875 1189.6875 307.171875 1185.242188 C 282.277344 1180.507812 263.222656 1165.957031 245.546875 1149.148438 C 214.179688 1119.316406 189.402344 1084.257812 166.25 1047.972656 C 122.335938 979.144531 87.585938 905.871094 61.066406 828.722656 C 39.605469 766.300781 24.636719 702.320312 15.496094 636.890625 C 8.761719 588.691406 5.734375 540.273438 6.28125 491.730469 C 7.292969 402.347656 19.722656 314.828125 53.648438 231.359375 C 78.660156 169.808594 112.5625 114.0625 162.222656 69.058594 C 199.636719 35.152344 242.398438 11.171875 292.664062 2.136719 C 304.253906 0.0507812 315.851562 -0.402344 327.492188 2.554688 C 344.082031 6.761719 354.433594 17.054688 357.859375 33.65625 C 362.320312 55.28125 362.484375 77.285156 361.855469 99.246094 C 360.429688 149.191406 352.875 198.214844 339.609375 246.410156 C 326.4375 294.265625 307.230469 339.945312 289.878906 386.300781 C 276.882812 421.027344 263.8125 455.734375 255.078125 491.855469 C 252.320312 503.257812 250.496094 514.832031 252.351562 526.640625 C 253.550781 534.28125 257.996094 536.5625 264.828125 532.820312 C 270.511719 529.703125 274.617188 524.789062 278.535156 519.789062 C 293.625 500.507812 306.003906 479.472656 318.035156 458.234375 C 339.921875 419.597656 361.546875 380.808594 383.535156 342.230469 C 389.332031 332.066406 395.777344 322.15625 405.019531 314.648438 C 419.273438 303.0625 434.503906 305.703125 444.089844 321.402344 C 451.632812 333.753906 454.363281 347.660156 456.070312 361.753906 C 460.675781 399.78125 454.894531 437.085938 448.195312 474.355469 C 439.613281 522.105469 422.757812 567.382812 407.4375 613.132812 C 401.296875 631.46875 396.539062 650.277344 396.402344 669.617188 C 396.242188 692.316406 402.21875 713.976562 411.523438 734.671875 C 425.703125 766.203125 444.792969 794.839844 463.847656 823.496094 C 485.332031 855.800781 507.535156 887.675781 524.621094 922.664062 C 548.9375 972.453125 563.769531 1025 570.542969 1079.941406 C 573.292969 1102.246094 575.195312 1124.574219 574.554688 1147.050781 C 574.109375 1162.707031 572.050781 1178.136719 567.207031 1193.128906 C 556.863281 1225.152344 531.132812 1240.570312 497.972656 1234.949219 C 448.925781 1226.640625 420.621094 1195.492188 405.164062 1150.5625 C 394.285156 1118.9375 388.089844 1085.992188 379.167969 1053.808594 C 377.734375 1048.640625 376.214844 1043.496094 374.582031 1037.777344 M 47.046875 523.5625 C 48.847656 516.441406 50.332031 509.125 49.699219 501.878906 C 48.75 491.015625 47.675781 479.839844 39.59375 471.320312 C 34.671875 466.132812 28.9375 466.375 25.753906 472.675781 C 18.070312 487.886719 12.277344 503.640625 19.066406 521.019531 C 21.402344 527 24.566406 532.277344 31.523438 532.980469 C 38.1875 533.65625 43.195312 530.339844 47.046875 523.5625 Z M 47.046875 523.5625 " fill-opacity="1" fill-rule="nonzero"/></g><g clip-path="url(#3682c6bbaf)"><path fill="#f84022" d="M 837.003906 517.703125 C 829.585938 534.332031 820.3125 549.207031 809.988281 563.488281 C 802.84375 573.375 797.371094 583.894531 800.3125 596.777344 C 802.609375 606.84375 809.144531 613.925781 816.753906 620.316406 C 837.746094 637.949219 855.160156 658.429688 867.058594 683.355469 C 878.546875 707.421875 884.648438 732.796875 886.8125 759.328125 C 892.683594 831.339844 873.835938 898.042969 843.328125 962.160156 C 816.070312 1019.445312 781.945312 1072.035156 735.667969 1116.078125 C 711.820312 1138.773438 685.785156 1158.390625 655.605469 1171.921875 C 645.863281 1176.292969 635.765625 1180.15625 624.519531 1177.332031 C 615.75 1175.128906 609.78125 1169.96875 606.480469 1161.726562 C 603.179688 1153.480469 601.964844 1144.832031 601.707031 1135.964844 C 600.851562 1106.464844 599.746094 1076.992188 596.164062 1047.632812 C 590.878906 1004.269531 579.199219 962.589844 564.316406 921.6875 C 545.070312 868.800781 518.148438 819.445312 493.851562 768.882812 C 481.761719 743.726562 471.351562 718.074219 467.734375 690.074219 C 464.953125 668.5625 469.066406 647.8125 473.859375 627.121094 C 483.917969 583.675781 494.4375 540.320312 500.195312 496.027344 C 504.738281 461.089844 504.953125 426.011719 502.570312 390.871094 C 498.429688 329.769531 477.828125 273.386719 453.886719 217.84375 C 438.832031 182.910156 423.335938 148.058594 413.648438 111.125 C 407.636719 88.21875 403.875 65.042969 406.507812 40.980469 C 410.042969 8.65625 427.722656 -0.5 457.160156 0.554688 C 477.933594 1.300781 498.160156 6.339844 517.890625 13.027344 C 596.910156 39.808594 661.648438 87.6875 717.199219 148.78125 C 759.375 195.164062 793.542969 246.972656 818.933594 304.390625 C 834.101562 338.691406 844.886719 374.378906 849.4375 411.640625 C 853.835938 447.671875 852.226562 483.269531 837.003906 517.703125 M 697.84375 908.625 C 700.453125 914.304688 701.925781 921.574219 709.609375 922.109375 C 717.535156 922.660156 720.6875 915.800781 723.792969 910.105469 C 732.394531 894.320312 736.925781 877.136719 740.292969 859.601562 C 746.148438 829.082031 745.648438 798.914062 733.847656 769.777344 C 724.84375 747.546875 708.648438 732.980469 684.757812 728.050781 C 670.246094 725.054688 661.421875 732.160156 660.9375 746.808594 C 660.734375 752.898438 660.820312 758.988281 662.347656 764.976562 C 666.375 780.785156 669.992188 796.707031 674.375 812.417969 C 683.144531 843.871094 689.605469 875.875 697.84375 908.625 M 625.886719 522.542969 C 625.941406 527.175781 625.8125 531.816406 626.082031 536.433594 C 627.449219 560.078125 642.226562 567.6875 662.324219 555.148438 C 663.355469 554.503906 664.375 553.820312 665.304688 553.039062 C 694.328125 528.621094 706.65625 497.140625 703.722656 459.734375 C 702.863281 448.808594 699.230469 438.261719 692.035156 429.449219 C 679.304688 413.859375 659.429688 413.984375 646.972656 429.765625 C 641.761719 436.367188 638.445312 443.976562 636.226562 452 C 629.976562 474.601562 626 497.570312 625.886719 522.542969 Z M 625.886719 522.542969 " fill-opacity="1" fill-rule="nonzero"/></g><g clip-path="url(#ce18db5c90)"><g clip-path="url(#e30d614bab)"><g transform="matrix(1, 0, 0, 1, 7, 453)"><g clip-path="url(#d44fb33664)"><g clip-path="url(#001b4a5376)"><g clip-path="url(#cd21b42851)"><rect x="-862" width="2592" fill="#fe3413" y="-1109.999976" height="2591.999885" fill-opacity="1"/></g></g></g></g></g></g></g></g></svg>